<svg xmlns="http://www.w3.org/2000/svg" width="20.176" height="20.173" viewBox="0 0 20.176 20.173"><defs><style>.a,.b{fill:none;stroke-linecap:round;}.b{stroke:#727272;stroke-miterlimit:10;stroke-width:1.5px;}.c,.d{stroke:none;}.d{fill:#727272;}</style></defs><g transform="translate(0 0)"><g class="a" transform="translate(0 0)"><path class="c" d="M8.491,0a8.489,8.489,0,0,1,8.542,8.359,8.364,8.364,0,0,1-8.491,8.307A8.489,8.489,0,0,1,0,8.307,8.364,8.364,0,0,1,8.491,0Z"/><path class="d" d="M 8.464059829711914 1.499999046325684 C 6.561180114746094 1.499999046325684 4.785520553588867 2.229948997497559 3.464159965515137 3.555398941040039 C 2.192060470581055 4.831429481506348 1.49452018737793 6.517289161682129 1.500030517578125 8.30242919921875 C 1.511680603027344 12.07510948181152 4.672930717468262 15.15394878387451 8.547340393066406 15.16567897796631 L 8.569379806518555 15.16570854187012 C 10.47224998474121 15.16570854187012 12.24791049957275 14.43575859069824 13.569260597229 13.11031913757324 C 14.84136009216309 11.83428955078125 15.53890037536621 10.14842891693115 15.53339004516602 8.363288879394531 C 15.5217399597168 4.590608596801758 12.3604907989502 1.51176929473877 8.486080169677734 1.500028610229492 L 8.464059829711914 1.499999046325684 M 8.464059829711914 -1.9073486328125e-06 C 8.473239898681641 -1.9073486328125e-06 8.481793403625488 1.1444091796875e-05 8.49098014831543 3.814697265625e-05 C 13.19461059570312 0.01428985595703125 17.0191707611084 3.756568908691406 17.03338050842285 8.358658790588379 C 17.0475902557373 12.96073913574219 13.24593925476074 16.67991828918457 8.542440414428711 16.66566848754883 C 3.838809967041016 16.65142822265625 0.01424980163574219 12.90914916992188 4.00543212890625e-05 8.307059288024902 C -0.01414108276367188 3.713967323303223 3.773154258728027 -1.9073486328125e-06 8.464059829711914 -1.9073486328125e-06 Z"/></g><path class="b" d="M0,0,2.871,3.664" transform="translate(15.707 15.364) rotate(-7)"/></g></svg>